<svg xmlns="http://www.w3.org/2000/svg" xmlns:xlink="http://www.w3.org/1999/xlink" width="48" zoomAndPan="magnify" viewBox="0 0 327.75 343.499995" height="48" preserveAspectRatio="xMidYMid meet" version="1.0"><defs><g/><clipPath id="038cf37cbc"><path d="M 240.351562 106 L 320.160156 106 L 320.160156 294.03125 L 240.351562 294.03125 Z M 240.351562 106 " clip-rule="nonzero"/></clipPath><clipPath id="67f398efa1"><path d="M 7.117188 106 L 86.792969 106 L 86.792969 294.03125 L 7.117188 294.03125 Z M 7.117188 106 " clip-rule="nonzero"/></clipPath><clipPath id="89d408b290"><path d="M 7.117188 0.214844 L 320.160156 0.214844 L 320.160156 214.132812 L 7.117188 214.132812 Z M 7.117188 0.214844 " clip-rule="nonzero"/></clipPath></defs><g clip-path="url(#038cf37cbc)"><path fill="#b6eada" d="M 240.777344 214.648438 L 320.160156 294.03125 L 320.160156 106.207031 Z M 240.777344 214.648438 " fill-opacity="1" fill-rule="nonzero"/></g><g clip-path="url(#67f398efa1)"><path fill="#b6eada" d="M 86.5 214.648438 L 7.117188 294.03125 L 7.117188 106.207031 Z M 86.5 214.648438 " fill-opacity="1" fill-rule="nonzero"/></g><g clip-path="url(#89d408b290)"><path fill="#b6eada" d="M 257.550781 0.214844 L 242.566406 0.214844 L 163.640625 108.035156 L 84.707031 0.214844 L 7.117188 0.214844 L 7.117188 62.820312 L 52.949219 62.820312 L 163.640625 214.03125 L 274.328125 62.820312 L 320.160156 62.820312 L 320.160156 0.214844 L 257.550781 0.214844 " fill-opacity="1" fill-rule="nonzero"/></g><g fill="#b6eada" fill-opacity="1"><g transform="translate(8.720233, 328.63302)"><g><path d="M 18.140625 0.359375 L 2.15625 0.359375 L 2.15625 -20.265625 L 18.5625 -20.265625 L 18.5625 -14.625 L 13.640625 -14.625 L 13.640625 -16.15625 L 7.4375 -16.15625 L 7.4375 -3.6875 L 14.25 -3.6875 L 14.765625 -5.09375 L 19.34375 -5.09375 Z M 18.140625 0.359375 "/></g></g></g><g fill="#b6eada" fill-opacity="1"><g transform="translate(30.218, 328.63302)"><g><path d="M 10.53125 -6.65625 L 6.84375 -6.65625 L 6.84375 0.359375 L 1.875 0.359375 L 1.875 -20.234375 L 18.484375 -20.234375 L 18.484375 -6.65625 L 16.078125 -6.65625 L 19.953125 0.359375 L 14.453125 0.359375 Z M 6.84375 -10.765625 L 13.453125 -10.765625 L 13.453125 -16.234375 L 6.84375 -16.234375 Z M 6.84375 -10.765625 "/></g></g></g><g fill="#b6eada" fill-opacity="1"><g transform="translate(52.051232, 328.63302)"><g><path d="M 0.53125 -20.234375 L 6.203125 -20.234375 L 10.90625 -13.03125 L 15.40625 -20.234375 L 21.078125 -20.234375 L 13.390625 -7.625 L 13.390625 0.328125 L 8.328125 0.328125 L 8.328125 -7.578125 Z M 0.53125 -20.234375 "/></g></g></g><g fill="#b6eada" fill-opacity="1"><g transform="translate(73.660828, 328.63302)"><g><path d="M 7.09375 -6.203125 L 7.09375 0.359375 L 2.046875 0.359375 L 2.046875 -20.265625 L 18.984375 -20.265625 L 18.984375 -6.203125 Z M 14.109375 -16.046875 L 7.09375 -16.046875 L 7.09375 -10.375 L 14.109375 -10.375 Z M 14.109375 -16.046875 "/></g></g></g><g fill="#b6eada" fill-opacity="1"><g transform="translate(94.683361, 328.63302)"><g><path d="M 18.03125 -16.21875 L 11.984375 -16.21875 L 11.984375 0.328125 L 6.984375 0.328125 L 6.984375 -16.21875 L 0.921875 -16.21875 L 0.921875 -20.203125 L 18.03125 -20.203125 Z M 18.03125 -16.21875 "/></g></g></g><g fill="#b6eada" fill-opacity="1"><g transform="translate(113.637182, 328.63302)"><g><path d="M 2.015625 -20.078125 L 22.59375 -20.078125 L 22.59375 0.109375 L 2.015625 0.109375 Z M 17.421875 -15.90625 L 7.15625 -15.90625 L 7.15625 -4.109375 L 17.421875 -4.109375 Z M 17.421875 -15.90625 "/></g></g></g><g fill="#b6eada" fill-opacity="1"><g transform="translate(138.238018, 328.63302)"><g/></g></g><g fill="#b6eada" fill-opacity="1"><g transform="translate(155.011308, 328.63302)"><g><path d="M 6.875 -16.40625 L 6.875 -11.6875 L 17.28125 -11.6875 L 17.28125 0.390625 L 2.484375 0.390625 L 1.515625 -4.78125 L 6.84375 -4.78125 L 7.21875 -3.375 L 11.9375 -3.375 L 11.9375 -7.875 L 1.875 -7.875 L 1.875 -20.1875 L 17.03125 -20.1875 L 17.03125 -14.8125 L 11.6875 -14.8125 L 11.6875 -16.40625 Z M 6.875 -16.40625 "/></g></g></g><g fill="#b6eada" fill-opacity="1"><g transform="translate(173.797396, 328.63302)"><g><path d="M 18.140625 0.359375 L 2.15625 0.359375 L 2.15625 -20.265625 L 18.5625 -20.265625 L 18.5625 -14.625 L 13.640625 -14.625 L 13.640625 -16.15625 L 7.4375 -16.15625 L 7.4375 -3.6875 L 14.25 -3.6875 L 14.765625 -5.09375 L 19.34375 -5.09375 Z M 18.140625 0.359375 "/></g></g></g><g fill="#b6eada" fill-opacity="1"><g transform="translate(195.295163, 328.63302)"><g><path d="M 10.53125 -6.65625 L 6.84375 -6.65625 L 6.84375 0.359375 L 1.875 0.359375 L 1.875 -20.234375 L 18.484375 -20.234375 L 18.484375 -6.65625 L 16.078125 -6.65625 L 19.953125 0.359375 L 14.453125 0.359375 Z M 6.84375 -10.765625 L 13.453125 -10.765625 L 13.453125 -16.234375 L 6.84375 -16.234375 Z M 6.84375 -10.765625 "/></g></g></g><g fill="#b6eada" fill-opacity="1"><g transform="translate(217.128395, 328.63302)"><g><path d="M 2.296875 -20.1875 L 16.90625 -20.1875 L 16.90625 -16.21875 L 7.46875 -16.21875 L 7.46875 -11.65625 L 15.875 -11.65625 L 15.875 -8.078125 L 7.46875 -8.078125 L 7.46875 -3.578125 L 16.90625 -3.578125 L 16.90625 0.3125 L 2.296875 0.3125 Z M 2.296875 -20.1875 "/></g></g></g><g fill="#b6eada" fill-opacity="1"><g transform="translate(236.333814, 328.63302)"><g><path d="M 2.296875 -20.1875 L 16.90625 -20.1875 L 16.90625 -16.21875 L 7.46875 -16.21875 L 7.46875 -11.65625 L 15.875 -11.65625 L 15.875 -8.078125 L 7.46875 -8.078125 L 7.46875 -3.578125 L 16.90625 -3.578125 L 16.90625 0.3125 L 2.296875 0.3125 Z M 2.296875 -20.1875 "/></g></g></g><g fill="#b6eada" fill-opacity="1"><g transform="translate(255.539233, 328.63302)"><g><path d="M 2.296875 -20.296875 L 9.359375 -20.296875 L 14.5 -6.03125 L 14.5 -20.296875 L 19.671875 -20.296875 L 19.671875 0.328125 L 12.15625 0.328125 L 7.4375 -13.25 L 7.4375 0.328125 L 2.296875 0.328125 Z M 2.296875 -20.296875 "/></g></g></g><g fill="#b6eada" fill-opacity="1"><g transform="translate(277.512245, 328.63302)"><g><path d="M 2.296875 -20.1875 L 16.90625 -20.1875 L 16.90625 -16.21875 L 7.46875 -16.21875 L 7.46875 -11.65625 L 15.875 -11.65625 L 15.875 -8.078125 L 7.46875 -8.078125 L 7.46875 -3.578125 L 16.90625 -3.578125 L 16.90625 0.3125 L 2.296875 0.3125 Z M 2.296875 -20.1875 "/></g></g></g><g fill="#b6eada" fill-opacity="1"><g transform="translate(296.717664, 328.63302)"><g><path d="M 10.53125 -6.65625 L 6.84375 -6.65625 L 6.84375 0.359375 L 1.875 0.359375 L 1.875 -20.234375 L 18.484375 -20.234375 L 18.484375 -6.65625 L 16.078125 -6.65625 L 19.953125 0.359375 L 14.453125 0.359375 Z M 6.84375 -10.765625 L 13.453125 -10.765625 L 13.453125 -16.234375 L 6.84375 -16.234375 Z M 6.84375 -10.765625 "/></g></g></g></svg>